<svg id="Smooth" enable-background="new 0 0 128 128" height="512" viewBox="0 0 128 128" width="512" xmlns="http://www.w3.org/2000/svg" xmlns:xlink="http://www.w3.org/1999/xlink"><linearGradient id="lg1"><stop offset="0" stop-color="#e4e5e3"/><stop offset=".9" stop-color="#a9aea7"/><stop offset="1" stop-color="#7c8378"/></linearGradient><linearGradient id="SVGID_1_" gradientUnits="userSpaceOnUse" x1="31" x2="31" xlink:href="#lg1" y1="-153.667" y2="221.705"/><linearGradient id="SVGID_2_" gradientUnits="userSpaceOnUse" x1="47" x2="47" xlink:href="#lg1" y1="-153.667" y2="221.705"/><linearGradient id="SVGID_3_" gradientUnits="userSpaceOnUse" x1="97" x2="97" xlink:href="#lg1" y1="-153.667" y2="221.705"/><linearGradient id="SVGID_4_" gradientUnits="userSpaceOnUse" x1="81" x2="81" xlink:href="#lg1" y1="-153.667" y2="221.705"/><linearGradient id="SVGID_5_" gradientUnits="userSpaceOnUse" x1="68.637" x2="84.969" y1="79.574" y2="185.565"><stop offset="0" stop-color="#809000"/><stop offset="1" stop-color="#6b7f00"/></linearGradient><linearGradient id="lg2"><stop offset="0" stop-color="#d69b61"/><stop offset="1" stop-color="#c17e51"/></linearGradient><linearGradient id="SVGID_6_" gradientUnits="userSpaceOnUse" x1="52" x2="52" xlink:href="#lg2" y1="112.661" y2="98.004"/><linearGradient id="lg3"><stop offset="0" stop-color="#a6b046"/><stop offset="1" stop-color="#9ca728"/></linearGradient><linearGradient id="SVGID_7_" gradientUnits="userSpaceOnUse" x1="24.003" x2="24.003" xlink:href="#lg3" y1="-20.75" y2="166.633"/><linearGradient id="SVGID_8_" gradientUnits="userSpaceOnUse" x1="104.032" x2="104.032" xlink:href="#lg3" y1="-20.75" y2="166.633"/><linearGradient id="SVGID_9_" gradientUnits="userSpaceOnUse" x1="64" x2="64" y1="112.167" y2="100.398"><stop offset="0" stop-color="#f2a900"/><stop offset=".9973" stop-color="#ffb154"/></linearGradient><linearGradient id="SVGID_10_" gradientUnits="userSpaceOnUse" x1="64.802" x2="63.386" y1="112.312" y2="81.645"><stop offset=".0399" stop-color="#fc9f4b"/><stop offset="1" stop-color="#f68741"/></linearGradient><linearGradient id="SVGID_11_" gradientUnits="userSpaceOnUse" x1="76" x2="76" xlink:href="#lg2" y1="112.661" y2="98.004"/><linearGradient id="SVGID_12_" gradientUnits="userSpaceOnUse" x1="64" x2="64" xlink:href="#lg3" y1="-20.744" y2="166.592"/><g><path d="m47.001 96c-.289 0-.576-.125-.774-.366l-32-39c-.35-.427-.288-1.057.139-1.407.429-.352 1.058-.289 1.408.139l32 39c.35.427.288 1.057-.139 1.407-.187.153-.411.227-.634.227z" fill="url(#SVGID_1_)"/><path d="m56 92c-.427 0-.822-.275-.955-.704l-18-58c-.164-.527.131-1.088.658-1.251.535-.165 1.089.132 1.252.659l18 58c.164.527-.131 1.088-.658 1.251-.1.031-.199.045-.297.045z" fill="url(#SVGID_2_)"/><path d="m80.999 96c-.223 0-.447-.074-.634-.227-.427-.35-.488-.98-.139-1.407l32-39c.352-.427.979-.49 1.408-.139.427.35.488.98.139 1.407l-32 39c-.198.241-.485.366-.774.366z" fill="url(#SVGID_3_)"/><path d="m72 92c-.098 0-.197-.015-.297-.045-.527-.164-.822-.724-.658-1.251l18-58c.163-.527.717-.824 1.252-.659.527.164.822.724.658 1.251l-18 58c-.133.429-.528.704-.955.704z" fill="url(#SVGID_4_)"/><path d="m116.998 24c-4.843-6.18-11.386-11.366-19-15-6.09-2.907-12.864-4.881-20-5.974-4.547-.696-9.241-1.033-13.998-1.026-4.758-.008-9.452.33-14 1.026-7.136 1.093-13.91 3.067-20 5.974-7.614 3.634-14.157 8.82-19 15-5.749 7.336-9.101 16.317-9 27 .028 3 .864 5.814 3 8 5.029 5.146 14.073 3.438 17-3 3.163-6.957 8.705-12.489 16-16s16.343-5 25.998-5c9.656 0 18.705 1.489 26 5s12.837 9.043 16 16c2.927 6.438 11.971 8.146 17 3 2.136-2.186 2.972-5 3-8 .101-10.683-3.251-19.664-9-27z" fill="url(#SVGID_5_)"/><path d="m55 99-1 20c-.042 1.116-.884 2-2 2s-1.958-.884-2-2l-1-20h-5l2 21c.214 3.365 2.625 6 5.997 6h.006c3.372 0 5.783-2.635 5.997-6l2-21z" fill="url(#SVGID_6_)"/><path d="m30 9c-7.614 3.634-14.157 8.82-19 15-.095.013-5.753 22.321 11 32 3.163-6.957 8.705-12.489 16-16-.032-.019-12.566-6.375-8-31z" fill="url(#SVGID_7_)"/><path d="m98.035 9c7.614 3.634 14.157 8.82 19 15 .095.013 5.753 22.321-11 32-3.163-6.957-8.705-12.489-16-16 .032-.019 12.566-6.375 8-31z" fill="url(#SVGID_8_)"/><path d="m85 100h-42c-2.75 0-5-2.25-5-5 0-2.75 2.25-5 5-5h42c2.75 0 5 2.25 5 5 0 2.75-2.25 5-5 5z" fill="url(#SVGID_9_)"/><path d="m85 90h-42c-2.75 0-5 2.25-5 5h52c0-2.75-2.25-5-5-5z" fill="url(#SVGID_10_)"/><path d="m79 99-1 20c-.042 1.116-.884 2-2 2s-1.958-.884-2-2l-1-20h-5l2 21c.214 3.365 2.625 6 5.997 6h.006c3.372 0 5.783-2.635 5.997-6l2-21z" fill="url(#SVGID_11_)"/><path d="m64 2c-4.497-.007-9.687.379-14 1 0 6 .717 16.788 4.769 32.515 2.989-.337 6.072-.515 9.231-.515 3.159 0 6.242.178 9.231.515 4.052-15.727 4.769-26.515 4.769-32.515-4.313-.621-9.503-1.007-14-1z" fill="url(#SVGID_12_)"/></g></svg>