<?xml version="1.0" encoding="iso-8859-1"?>
<!-- Generator: Adobe Illustrator 19.0.0, SVG Export Plug-In . SVG Version: 6.00 Build 0)  -->
<svg version="1.1" id="Capa_1" xmlns="http://www.w3.org/2000/svg" xmlns:xlink="http://www.w3.org/1999/xlink" x="0px" y="0px"
	 viewBox="0 0 512 512" style="enable-background:new 0 0 512 512;" xml:space="preserve">
<polygon style="fill:#F98E2E;" points="384.353,302 303.353,362 268.926,392 431,362 512,302 "/>
<g>
	<polygon style="fill:#FAB037;" points="208.647,362 127.647,302 0,302 81,362 243.074,392 	"/>
	<polygon style="fill:#FAB037;" points="431,362 303.353,362 273.353,437 303.353,512 431,512 	"/>
</g>
<g>
	<polygon style="fill:#FF3CAD;" points="371,135.5 371,60 256,60 226,135.5 256,331.713 452.213,135.5 	"/>
	<polygon style="fill:#FF3CAD;" points="371,0 256,0 236,15 256,30 371,30 	"/>
</g>
<polygon style="fill:#FE6192;" points="141,60 141,135.5 59.787,135.5 256,331.713 256,60 "/>
<polygon style="fill:#FBD141;" points="256,362 226,437 256,512 303.353,512 303.353,362 "/>
<rect x="81" y="362" style="fill:#FBF24A;" width="175" height="150"/>
<rect x="141" style="fill:#FE6192;" width="115" height="30"/>
<g>
</g>
<g>
</g>
<g>
</g>
<g>
</g>
<g>
</g>
<g>
</g>
<g>
</g>
<g>
</g>
<g>
</g>
<g>
</g>
<g>
</g>
<g>
</g>
<g>
</g>
<g>
</g>
<g>
</g>
</svg>
